<svg data-name="Layer 1" xmlns="http://www.w3.org/2000/svg" width="856.12205" height="674" viewBox="0 0 856.12205 674" xmlns:xlink="http://www.w3.org/1999/xlink"><path d="M593.26357,266.136h-3.54069V169.13919A56.13918,56.13918,0,0,0,533.58377,113H328.0828a56.13913,56.13913,0,0,0-56.13933,56.13893v532.1324a56.13909,56.13909,0,0,0,56.13905,56.13917h205.501a56.13914,56.13914,0,0,0,56.13933-56.13895V335.18h3.54069Z" transform="translate(-171.93898 -113)" fill="#3f3d56"/><path d="M535.426,128.93322H508.60134A19.918,19.918,0,0,1,490.16,156.37379H372.4311a19.91806,19.91806,0,0,1-18.44139-27.44057H328.93542a41.92409,41.92409,0,0,0-41.92413,41.924V702.20874a41.92407,41.92407,0,0,0,41.92408,41.92408H535.426a41.92411,41.92411,0,0,0,41.92414-41.924V170.8573a41.92407,41.92407,0,0,0-41.92408-41.92408Zm-4.50666,246.49737a10.8911,10.8911,0,0,1-10.8592,10.8592H467.574a10.89109,10.89109,0,0,1-10.8592-10.8592v-2.7148a10.89111,10.89111,0,0,1,10.8592-10.8592h52.48612a10.89115,10.89115,0,0,1,10.8592,10.8592Zm5.88207-47.96146a10.89111,10.89111,0,0,1-10.8592,10.8592H337.7161a10.89109,10.89109,0,0,1-10.8592-10.8592v-2.7148a10.89112,10.89112,0,0,1,10.8592-10.8592H525.94221a10.89116,10.89116,0,0,1,10.8592,10.8592Zm0-47.96146a10.89111,10.89111,0,0,1-10.8592,10.8592H337.7161a10.89109,10.89109,0,0,1-10.8592-10.8592v-2.7148a10.89112,10.89112,0,0,1,10.8592-10.8592H525.94221a10.89116,10.89116,0,0,1,10.8592,10.8592Zm0-47.96146a10.8911,10.8911,0,0,1-10.8592,10.8592H337.7161a10.89109,10.89109,0,0,1-10.8592-10.8592v-2.7148a10.89111,10.89111,0,0,1,10.8592-10.8592H525.94221a10.89116,10.89116,0,0,1,10.8592,10.8592Z" transform="translate(-171.93898 -113)" fill="#fff"/><circle cx="169.84933" cy="213.56423" r="6.33453" fill="#fff"/><circle cx="190.66279" cy="213.56423" r="6.33453" fill="#fff"/><circle cx="211.47625" cy="213.56423" r="6.33453" fill="#fff"/><circle cx="232.28972" cy="213.56423" r="6.33453" fill="#fff"/><circle cx="300.15971" cy="261.52569" r="6.33453" fill="#fff"/><circle cx="320.97317" cy="261.52569" r="6.33453" fill="#fff"/><circle cx="341.78664" cy="261.52569" r="6.33453" fill="#fff"/><path d="M538.25762,456.6012H323.5908a19.01566,19.01566,0,0,0-19.01568,19.01563v104.59a19.01571,19.01571,0,0,0,19.01566,19.01571H538.25762a19.0157,19.0157,0,0,0,19.0157-19.01565V475.61688a19.01566,19.01566,0,0,0-19.0156-19.01568Zm-219.978,12.97163c.42392-.07665,10.47581-1.78725,18.79934,3.22117,8.323,5.00748,11.52088,14.6906,11.65264,15.1l.33649,1.04412-1.0801.19161a28.669,28.669,0,0,1-4.65836.34214,27.73763,27.73763,0,0,1-14.14144-3.56421c-8.323-5.00653-11.52041-14.6897-11.65221-15.09912l-.33651-1.04411Zm46.59851,97.10524H326.59051a10.52909,10.52909,0,0,1,0-21.05818h38.28762a10.52909,10.52909,0,0,1,0,21.05818Zm174.2086-1.91436A11.5201,11.5201,0,0,1,527.60041,576.25H498.88473a11.5201,11.5201,0,0,1-11.48627-11.48627V547.53425A11.52,11.52,0,0,1,498.88473,536.048h28.71568a11.52,11.52,0,0,1,11.48627,11.48627Z" transform="translate(-171.93898 -113)" fill="#6c63ff"/><path d="M508.14328,561.21324H496.5975a3.10848,3.10848,0,0,0,0,6.217h11.54578a3.10849,3.10849,0,0,0,0-6.217Z" transform="translate(-171.93898 -113)" fill="#3f3d56"/><path d="M529.45864,561.21324H517.91281a3.10848,3.10848,0,0,0,0,6.217H529.4586a3.10849,3.10849,0,0,0,0-6.217Z" transform="translate(-171.93898 -113)" fill="#3f3d56"/><path d="M508.14155,552.43841H496.59576a3.10848,3.10848,0,0,0,0,6.217h11.54579a3.10848,3.10848,0,0,0,0-6.217Z" transform="translate(-171.93898 -113)" fill="#3f3d56"/><path d="M529.45691,552.43841H517.91107a3.10848,3.10848,0,0,0,0,6.217h11.54579a3.10848,3.10848,0,0,0,0-6.217Z" transform="translate(-171.93898 -113)" fill="#3f3d56"/><path d="M508.14155,543.84123H496.59576a3.10848,3.10848,0,0,0,0,6.217h11.54579a3.10848,3.10848,0,0,0,0-6.217Z" transform="translate(-171.93898 -113)" fill="#3f3d56"/><path d="M529.45691,543.84123H517.91107a3.10848,3.10848,0,0,0,0,6.217h11.54579a3.10848,3.10848,0,0,0,0-6.217Z" transform="translate(-171.93898 -113)" fill="#3f3d56"/><rect x="487" y="383.00001" width="28" height="27.99999" fill="#e6e6e6"/><path d="M625.939,513h46v46h-46Zm44,2h-42v42h42Z" transform="translate(-171.93898 -113)" fill="#3f3d56"/><rect y="152.00001" width="28" height="28" fill="#e6e6e6"/><path d="M232.939,276h-46V230h46Zm-44-2h42V232h-42Z" transform="translate(-171.93898 -113)" fill="#3f3d56"/><polygon points="653.077 661.417 640.817 661.417 634.985 614.129 653.079 614.129 653.077 661.417" fill="#ffb8b8"/><path d="M632.06,657.91362H655.7039a0,0,0,0,1,0,0v14.88687a0,0,0,0,1,0,0H617.17317a0,0,0,0,1,0,0v0A14.88686,14.88686,0,0,1,632.06,657.91362Z" fill="#2f2e41"/><polygon points="714.077 661.417 701.817 661.417 695.985 614.129 714.079 614.129 714.077 661.417" fill="#ffb8b8"/><path d="M693.06,657.91362H716.7039a0,0,0,0,1,0,0v14.88687a0,0,0,0,1,0,0H678.17317a0,0,0,0,1,0,0v0A14.88686,14.88686,0,0,1,693.06,657.91362Z" fill="#2f2e41"/><path d="M763.51493,605.30342a10.74267,10.74267,0,0,1,4.51052-15.84306l41.67577-114.86668,20.5071,11.19135L782.62359,595.55579a10.80091,10.80091,0,0,1-19.10866,9.74763Z" transform="translate(-171.93898 -113)" fill="#ffb8b8"/><path d="M879.75379,626.88737a10.74271,10.74271,0,0,1-2.89305-16.21659L863.95,489.16137l23.33776,1.06622L892.65342,609.748a10.80091,10.80091,0,0,1-12.89963,17.13934Z" transform="translate(-171.93898 -113)" fill="#ffb8b8"/><circle cx="670.5842" cy="315.75634" r="24.56103" fill="#ffb8b8"/><path d="M879.59694,599.25244H805.55006l.08911-.57617c.13306-.86133,13.19678-86.439,3.56177-114.436a11.813,11.813,0,0,1,6.06934-14.58349h.00024c13.77173-6.48535,40.20752-14.47119,62.52,4.90918a28.23446,28.23446,0,0,1,9.45947,23.396Z" transform="translate(-171.93898 -113)" fill="#ccc"/><path d="M819.77174,524.88428l-33.33667-6.76319,15.62622-37.02978a13.99723,13.99723,0,0,1,27.10571,6.99756Z" transform="translate(-171.93898 -113)" fill="#ccc"/><path d="M862.46778,537.44189l-2.00415-45.9414c-1.51977-8.63623,3.42408-16.80029,11.02735-18.13477,7.60547-1.32959,15.03174,4.66016,16.55835,13.35987l7.533,42.92773Z" transform="translate(-171.93898 -113)" fill="#ccc"/><path d="M877.13341,593.75241c11.91455,45.37671,13.21436,103.06939,10,166l-16-2-29-120-16,122-18-1c-5.37744-66.02973-10.61328-122.71527-2-160Z" transform="translate(-171.93898 -113)" fill="#2f2e41"/><path d="M858.70645,447.73782c-4.582,4.88078-13.09131,2.26066-13.68835-4.40717a8.05477,8.05477,0,0,1,.01014-1.5557c.30826-2.95357,2.01461-5.635,1.60587-8.7536a4.59042,4.59042,0,0,0-.84011-2.14891c-3.65124-4.88934-12.22227,2.18687-15.6682-2.2393-2.113-2.714.3708-6.98712-1.25065-10.02051-2.14006-4.00357-8.47881-2.0286-12.45388-4.22115-4.42275-2.43949-4.15821-9.22525-1.24686-13.35269,3.55052-5.0336,9.77572-7.71952,15.92336-8.10661s12.25292,1.27475,17.99229,3.51145c6.52109,2.54134,12.98768,6.05351,17.00067,11.78752,4.88021,6.97317,5.34986,16.34794,2.90917,24.50175C867.5152,437.69294,862.44812,443.75214,858.70645,447.73782Z" transform="translate(-171.93898 -113)" fill="#2f2e41"/><path d="M1027.061,787h-381a1,1,0,0,1,0-2h381a1,1,0,0,1,0,2Z" transform="translate(-171.93898 -113)" fill="#3f3d56"/></svg>